<?xml version="1.0" encoding="UTF-8" standalone="no"?>
<!DOCTYPE svg PUBLIC "-//W3C//DTD SVG 1.1//EN" "http://www.w3.org/Graphics/SVG/1.1/DTD/svg11.dtd">
<svg version="1.1" xmlns="http://www.w3.org/2000/svg" xmlns:xlink="http://www.w3.org/1999/xlink" preserveAspectRatio="xMidYMid meet" viewBox="0 0 640 640" width="640" height="640"><defs><path d="M168.78 155.8L170.81 159.31L170.81 159.31L207.42 156.41L186.6 186.66L227.94 258.27L245.26 248.27L265.7 283.67L267.37 283.43L271.51 283L275.64 282.73L279.78 282.62L283.9 282.68L288.02 282.89L292.11 283.26L296.19 283.78L300.24 284.46L304.26 285.3L308.24 286.28L312.18 287.42L316.08 288.71L319.92 290.14L323.72 291.73L327.45 293.45L331.12 295.33L334.72 297.34L338.24 299.5L341.69 301.8L345.06 304.24L348.34 306.82L351.52 309.54L354.61 312.39L357.6 315.37L360.48 318.49L363.25 321.74L365.9 325.13L368.43 328.64L370.84 332.28L373.12 336.04L375.24 339.9L377.19 343.8L378.97 347.75L380.57 351.74L382 355.77L383.26 359.82L384.35 363.9L385.28 368L386.04 372.12L386.63 376.25L387.06 380.38L387.33 384.52L387.43 388.65L387.38 392.78L387.17 396.89L386.8 400.99L386.27 405.06L385.59 409.11L384.76 413.13L383.77 417.11L382.64 421.05L381.35 424.95L379.91 428.8L378.33 432.59L376.6 436.32L374.73 439.99L372.71 443.59L370.55 447.12L368.25 450.57L365.81 453.93L363.24 457.21L360.52 460.39L357.67 463.48L354.68 466.47L351.56 469.35L348.31 472.12L344.93 474.77L341.42 477.31L337.78 479.71L334.01 481.99L330.16 484.12L326.25 486.06L322.3 487.84L318.31 489.44L314.29 490.87L310.24 492.13L306.16 493.22L302.05 494.15L297.94 494.91L293.81 495.5L289.68 495.93L285.54 496.2L281.41 496.31L277.28 496.25L273.17 496.04L269.07 495.67L264.99 495.15L260.94 494.47L256.93 493.63L252.94 492.65L249 491.51L245.11 490.22L241.26 488.79L237.47 487.2L233.74 485.48L230.07 483.6L226.47 481.59L222.94 479.43L219.49 477.13L216.13 474.69L212.85 472.11L209.66 469.39L206.57 466.54L203.59 463.56L200.71 460.44L197.94 457.19L195.28 453.8L192.75 450.29L190.34 446.65L188.06 442.89L185.94 439.03L183.99 435.12L182.22 431.17L180.62 427.19L179.18 423.16L177.92 419.11L176.83 415.03L175.91 410.93L175.15 406.81L174.55 402.68L174.12 398.55L173.86 394.41L173.75 390.28L173.8 386.15L174.02 382.04L174.39 377.94L174.91 373.87L175.59 369.82L176.42 365.8L177.41 361.82L178.55 357.88L179.83 353.98L181.27 350.13L182.85 346.34L184.58 342.61L186.45 338.94L188.47 335.34L190.63 331.81L192.93 328.36L195.37 325L196.42 323.67L175.98 288.27L193.3 278.27L126.46 162.49L126.46 162.49L118.93 149.46L118.67 148.97L118.44 148.48L118.23 147.99L118.06 147.48L117.91 146.98L117.79 146.46L117.7 145.95L117.64 145.43L117.6 144.92L117.59 144.4L117.6 143.89L117.65 143.38L117.72 142.87L117.81 142.37L117.93 141.87L118.08 141.38L118.25 140.89L118.44 140.42L118.66 139.96L118.9 139.5L119.17 139.06L119.46 138.63L119.77 138.22L120.11 137.82L120.47 137.44L120.85 137.07L121.25 136.72L121.68 136.39L122.12 136.08L122.59 135.8L139.91 125.8L139.92 125.79L140.71 125.34L140.84 125.33L140.88 125.3L141.38 125.1L141.88 124.92L142.39 124.78L142.9 124.66L143.42 124.57L143.93 124.5L144.45 124.47L144.96 124.46L145.48 124.47L145.99 124.51L146.5 124.58L147 124.68L147.49 124.8L155.96 124.12L192.57 121.22L171.75 151.47L168.78 155.8ZM305.64 422.4L304.36 422.65L303.08 423.02L301.84 423.52L300.62 424.15L299.47 424.89L298.41 425.72L297.45 426.64L296.59 427.63L295.83 428.68L295.17 429.79L294.62 430.96L294.18 432.16L293.85 433.4L293.63 434.67L293.52 435.95L293.53 437.25L293.66 438.54L293.92 439.83L294.29 441.1L294.79 442.35L295.42 443.56L296.16 444.72L296.99 445.77L297.9 446.73L298.89 447.59L299.95 448.35L301.06 449.01L302.22 449.56L303.43 450L304.67 450.33L305.94 450.55L307.22 450.66L308.51 450.65L309.8 450.52L311.09 450.27L312.36 449.89L313.61 449.39L314.83 448.76L315.98 448.02L317.04 447.19L318 446.28L318.86 445.29L319.62 444.23L320.27 443.12L320.82 441.96L321.27 440.75L321.6 439.51L321.82 438.25L321.92 436.96L321.91 435.67L321.78 434.38L321.53 433.09L321.16 431.82L320.66 430.57L320.03 429.35L319.29 428.2L318.46 427.14L317.54 426.18L316.56 425.32L315.5 424.56L314.39 423.91L313.22 423.36L312.02 422.91L310.78 422.58L309.51 422.36L308.23 422.26L306.94 422.27L305.64 422.4Z" id="g3IBxzJec"></path><path d="M286.96 298.11L290.47 298.43L293.96 298.88L297.43 299.46L300.88 300.18L304.29 301.02L307.67 302L311.01 303.1L314.31 304.33L317.56 305.69L320.76 307.17L323.9 308.78L326.99 310.5L330.01 312.35L332.96 314.33L335.85 316.42L338.66 318.63L341.39 320.95L344.04 323.4L346.6 325.96L349.07 328.63L351.44 331.42L353.71 334.32L355.89 337.33L357.95 340.45L359.9 343.68L361.72 346.98L363.39 350.33L364.91 353.71L366.29 357.13L367.51 360.58L368.59 364.06L369.53 367.55L370.32 371.07L370.97 374.6L371.48 378.13L371.85 381.68L372.08 385.22L372.17 388.77L372.12 392.3L371.94 395.83L371.63 399.34L371.18 402.83L370.59 406.31L369.88 409.75L369.03 413.16L368.06 416.54L366.96 419.88L365.73 423.18L364.37 426.43L362.89 429.63L361.28 432.77L359.55 435.86L357.7 438.88L355.73 441.84L353.64 444.72L351.43 447.53L349.1 450.26L346.66 452.91L344.1 455.47L341.43 457.94L338.64 460.31L335.74 462.59L332.73 464.76L329.61 466.82L326.38 468.77L323.08 470.59L319.73 472.26L316.34 473.79L312.92 475.16L309.48 476.39L306 477.47L302.5 478.4L298.99 479.19L295.46 479.84L291.92 480.35L288.38 480.72L284.83 480.95L281.29 481.04L277.75 481L274.23 480.82L270.72 480.5L267.22 480.05L263.75 479.47L260.31 478.75L256.89 477.91L253.52 476.93L250.18 475.83L246.88 474.6L243.63 473.24L240.43 471.76L237.28 470.15L234.2 468.42L231.18 466.57L228.22 464.6L225.34 462.51L222.53 460.3L219.8 457.97L217.15 455.53L214.59 452.97L212.12 450.3L209.74 447.51L207.47 444.61L205.3 441.6L203.23 438.48L201.28 435.25L199.46 431.95L197.79 428.6L196.27 425.22L194.9 421.8L193.67 418.35L192.59 414.87L191.65 411.38L190.86 407.86L190.21 404.33L189.7 400.79L189.33 397.25L189.1 393.71L189.01 390.16L189.06 386.63L189.24 383.1L189.56 379.59L190.01 376.09L190.59 372.62L191.31 369.18L192.15 365.77L193.13 362.39L194.23 359.05L195.46 355.75L196.82 352.5L198.3 349.3L199.9 346.16L201.63 343.07L203.48 340.05L205.45 337.09L207.54 334.21L209.75 331.4L212.08 328.67L214.53 326.02L217.08 323.46L219.76 320.99L222.55 318.62L225.44 316.34L228.45 314.17L231.57 312.11L234.8 310.15L238.11 308.33L241.46 306.66L244.84 305.14L248.26 303.77L251.71 302.54L255.18 301.46L258.68 300.53L262.2 299.73L265.72 299.08L269.26 298.58L272.81 298.21L276.35 297.98L279.89 297.89L283.43 297.93L286.96 298.11ZM305.5 422.33L304.25 422.6L303 422.99L301.78 423.49L300.59 424.11L299.46 424.83L298.42 425.64L297.46 426.52L296.6 427.47L295.83 428.49L295.16 429.57L294.58 430.69L294.11 431.86L293.73 433.05L293.45 434.28L293.29 435.53L293.22 436.79L293.27 438.06L293.43 439.32L293.7 440.58L294.08 441.82L294.58 443.05L295.2 444.24L295.92 445.37L296.73 446.41L297.61 447.36L298.57 448.23L299.59 449L300.66 449.67L301.78 450.25L302.95 450.72L304.15 451.1L305.37 451.37L306.62 451.54L307.88 451.6L309.15 451.56L310.42 451.4L311.67 451.13L312.92 450.75L314.14 450.25L315.33 449.63L316.46 448.91L317.5 448.1L318.46 447.22L319.32 446.26L320.09 445.24L320.76 444.17L321.34 443.05L321.82 441.88L322.19 440.68L322.47 439.45L322.64 438.21L322.7 436.95L322.65 435.68L322.49 434.41L322.22 433.15L321.84 431.91L321.34 430.69L320.72 429.5L320 428.37L319.19 427.33L318.31 426.37L317.35 425.51L316.34 424.74L315.26 424.07L314.14 423.49L312.97 423.01L311.77 422.64L310.55 422.36L309.3 422.19L308.04 422.13L306.77 422.18L305.5 422.33Z" id="i1auZ1ScD4"></path><path d="M122.13 136.06L127.6 132.9L234.45 317.96L228.98 321.12L122.13 136.06Z" id="c8p3bpDP6"></path><path d="M527.71 144.04L528.21 143.98L528.72 143.95L529.24 143.94L529.75 143.96L530.26 144L530.77 144.07L531.28 144.17L531.78 144.29L532.28 144.44L532.78 144.62L533.27 144.82L533.74 145.06L534.21 145.32L534.26 145.35L534.38 145.37L535.12 145.92L535.12 145.92L549.89 156.93L551.16 157.87L551.59 158.21L552 158.57L552.38 158.95L552.74 159.34L553.08 159.75L553.39 160.17L553.68 160.61L553.94 161.06L554.18 161.52L554.39 161.99L554.58 162.46L554.74 162.95L554.88 163.45L554.99 163.94L555.08 164.45L555.14 164.96L555.17 165.47L555.18 165.98L555.16 166.49L555.12 167.01L555.05 167.52L554.95 168.03L554.83 168.53L554.68 169.03L554.5 169.52L554.3 170.01L554.06 170.49L553.8 170.96L553.52 171.42L553.2 171.87L538.1 192.12L538.1 192.12L464.3 291.12L480.34 303.07L455.91 335.85L456.79 337.29L458.82 340.92L460.7 344.61L462.44 348.36L464.02 352.17L465.45 356.04L466.73 359.95L467.86 363.9L468.84 367.88L469.66 371.9L470.33 375.95L470.84 380.02L471.2 384.11L471.41 388.21L471.45 392.32L471.34 396.43L471.07 400.54L470.64 404.65L470.05 408.74L469.31 412.82L468.4 416.87L467.32 420.9L466.09 424.9L464.69 428.87L463.13 432.79L461.41 436.67L459.52 440.5L457.46 444.27L455.24 447.99L452.85 451.64L450.29 455.22L447.58 458.7L444.77 462.03L441.84 465.22L438.81 468.27L435.68 471.18L432.46 473.94L429.14 476.56L425.74 479.03L422.26 481.35L418.7 483.53L415.08 485.56L411.38 487.44L407.63 489.17L403.82 490.76L399.96 492.19L396.05 493.47L392.1 494.6L388.11 495.58L384.09 496.4L380.04 497.07L375.97 497.58L371.88 497.94L367.78 498.15L363.67 498.19L359.56 498.08L355.45 497.81L351.35 497.38L347.25 496.79L343.18 496.05L339.12 495.14L335.09 494.06L331.09 492.83L327.13 491.43L323.2 489.87L319.32 488.15L315.49 486.26L311.72 484.2L308 481.98L304.35 479.58L300.77 477.03L297.29 474.32L293.96 471.51L290.77 468.58L287.72 465.55L284.81 462.42L282.05 459.2L279.44 455.88L276.97 452.48L274.64 449L272.46 445.44L270.43 441.82L268.55 438.12L266.82 434.37L265.24 430.56L263.8 426.7L262.52 422.79L261.39 418.84L260.42 414.85L259.59 410.83L258.92 406.78L258.41 402.71L258.05 398.62L257.85 394.52L257.8 390.41L257.91 386.3L258.18 382.19L258.61 378.09L259.2 373.99L259.95 369.92L260.86 365.86L261.93 361.83L263.16 357.83L264.56 353.87L266.12 349.94L267.85 346.06L269.74 342.23L271.79 338.46L274.02 334.74L276.41 331.09L278.97 327.51L281.67 324.03L284.48 320.7L287.41 317.51L290.44 314.46L293.57 311.55L296.8 308.79L300.11 306.18L303.51 303.7L306.99 301.38L310.55 299.2L314.18 297.17L317.87 295.29L321.62 293.56L325.43 291.97L329.3 290.54L333.21 289.26L337.16 288.13L341.14 287.16L345.16 286.33L349.21 285.66L353.28 285.15L357.37 284.79L361.47 284.59L365.58 284.54L369.69 284.65L373.8 284.92L377.91 285.35L382 285.94L386.08 286.69L390.13 287.6L391.77 288.03L416.2 255.26L432.23 267.21L481.65 200.92L464.51 168.44L500.53 175.6L502.95 172.35L500.5 167.71L483.36 135.23L519.38 142.39L527.71 144.04ZM329.51 420.92L328.26 421.22L327.04 421.63L325.86 422.15L324.72 422.78L323.64 423.52L322.62 424.37L321.67 425.32L320.8 426.38L320.04 427.51L319.39 428.69L318.87 429.91L318.47 431.16L318.19 432.43L318.03 433.71L317.99 435L318.06 436.28L318.24 437.55L318.54 438.8L318.95 440.02L319.47 441.21L320.1 442.34L320.84 443.43L321.69 444.45L322.64 445.39L323.7 446.26L324.84 447.03L326.02 447.67L327.24 448.19L328.49 448.59L329.76 448.87L331.04 449.03L332.33 449.08L333.61 449.01L334.88 448.82L336.13 448.52L337.35 448.11L338.53 447.59L339.67 446.96L340.75 446.22L341.77 445.37L342.72 444.42L343.59 443.36L344.35 442.23L345 441.05L345.52 439.83L345.92 438.58L346.2 437.31L346.36 436.03L346.4 434.74L346.33 433.46L346.15 432.19L345.85 430.94L345.44 429.72L344.92 428.54L344.29 427.4L343.55 426.32L342.7 425.3L341.75 424.35L340.69 423.48L339.55 422.71L338.37 422.07L337.15 421.55L335.9 421.15L334.63 420.87L333.35 420.71L332.06 420.66L330.78 420.73L329.51 420.92Z" id="cTRXOYcKs"></path><path d="M372.49 300.13L376.01 300.49L379.52 301L383.01 301.64L386.49 302.42L389.94 303.34L393.37 304.4L396.77 305.59L400.13 306.93L403.46 308.41L406.74 310.03L409.98 311.79L413.16 313.7L416.29 315.75L419.36 317.94L422.34 320.26L425.2 322.67L427.93 325.18L430.55 327.78L433.04 330.46L435.4 333.23L437.65 336.07L439.77 338.98L441.76 341.96L443.62 345.01L445.36 348.12L446.98 351.29L448.46 354.51L449.82 357.77L451.05 361.08L452.15 364.43L453.11 367.82L453.95 371.24L454.66 374.68L455.23 378.15L455.67 381.64L455.98 385.15L456.15 388.66L456.19 392.18L456.1 395.71L455.86 399.23L455.5 402.75L454.99 406.26L454.35 409.75L453.57 413.23L452.65 416.68L451.6 420.11L450.4 423.51L449.06 426.87L447.58 430.2L445.96 433.48L444.2 436.72L442.29 439.9L440.24 443.03L438.05 446.1L435.73 449.08L433.32 451.94L430.81 454.67L428.21 457.29L425.53 459.78L422.77 462.14L419.93 464.39L417.01 466.5L414.03 468.5L410.98 470.36L407.87 472.1L404.7 473.72L401.49 475.2L398.22 476.56L394.91 477.79L391.56 478.88L388.17 479.85L384.75 480.69L381.31 481.39L377.84 481.97L374.35 482.41L370.85 482.72L367.33 482.89L363.81 482.93L360.29 482.84L356.76 482.6L353.24 482.24L349.74 481.73L346.24 481.09L342.76 480.31L339.31 479.39L335.88 478.34L332.48 477.14L329.12 475.8L325.79 474.32L322.51 472.7L319.28 470.94L316.09 469.03L312.96 466.98L309.89 464.79L306.91 462.47L304.06 460.06L301.32 457.55L298.71 454.95L296.22 452.27L293.85 449.51L291.61 446.67L289.49 443.75L287.5 440.77L285.63 437.72L283.89 434.61L282.28 431.44L280.79 428.23L279.43 424.96L278.21 421.65L277.11 418.3L276.14 414.91L275.3 411.49L274.6 408.05L274.02 404.58L273.58 401.09L273.28 397.59L273.1 394.07L273.06 390.55L273.16 387.02L273.39 383.5L273.76 379.98L274.26 376.48L274.9 372.98L275.68 369.5L276.6 366.05L277.66 362.62L278.85 359.22L280.19 355.86L281.67 352.53L283.29 349.25L285.06 346.02L286.96 342.83L289.01 339.7L291.2 336.63L293.52 333.65L295.93 330.8L298.44 328.06L301.04 325.45L303.72 322.96L306.49 320.59L309.33 318.35L312.24 316.23L315.23 314.23L318.27 312.37L321.38 310.63L324.55 309.02L327.77 307.53L331.03 306.17L334.34 304.95L337.69 303.85L341.08 302.88L344.5 302.04L347.94 301.34L351.41 300.76L354.9 300.32L358.41 300.01L361.92 299.84L365.44 299.8L368.97 299.9L372.49 300.13ZM329.79 420.67L328.55 420.9L327.34 421.24L326.15 421.68L325.01 422.23L323.91 422.87L322.86 423.62L321.87 424.46L320.95 425.4L320.1 426.44L319.34 427.55L318.71 428.71L318.18 429.9L317.76 431.12L317.46 432.35L317.27 433.61L317.18 434.87L317.2 436.13L317.33 437.38L317.57 438.61L317.9 439.83L318.35 441.01L318.89 442.15L319.53 443.25L320.28 444.3L321.12 445.29L322.07 446.22L323.1 447.07L324.22 447.82L325.37 448.46L326.56 448.98L327.78 449.4L329.02 449.7L330.27 449.9L331.53 449.98L332.79 449.96L334.04 449.83L335.27 449.6L336.49 449.26L337.67 448.82L338.81 448.27L339.92 447.63L340.96 446.88L341.95 446.04L342.88 445.1L343.73 444.06L344.48 442.95L345.12 441.79L345.65 440.6L346.06 439.39L346.36 438.15L346.56 436.89L346.64 435.63L346.62 434.38L346.49 433.12L346.26 431.89L345.92 430.68L345.48 429.49L344.93 428.35L344.29 427.25L343.54 426.2L342.7 425.21L341.76 424.29L340.72 423.44L339.61 422.68L338.46 422.04L337.27 421.52L336.05 421.1L334.81 420.8L333.56 420.61L332.3 420.52L331.04 420.54L329.79 420.67Z" id="adYnmghgR"></path><path d="M551.58 158.19L546.52 154.41L418.8 325.73L423.87 329.51L551.58 158.19Z" id="cA035PNPp"></path><path d="M336.32 106L336.86 106.01L337.41 106.06L337.94 106.13L338.46 106.23L338.97 106.36L339.48 106.51L339.97 106.69L340.45 106.89L340.91 107.12L341.36 107.37L341.8 107.64L342.22 107.93L342.63 108.24L343.02 108.58L343.39 108.93L343.74 109.3L344.07 109.69L344.39 110.09L344.68 110.52L344.95 110.95L345.2 111.4L345.43 111.87L345.63 112.35L345.81 112.84L345.96 113.34L346.09 113.85L346.18 114.38L346.26 114.91L346.3 115.45L346.32 116L346.32 118.32L351.05 120.58L384.21 136.37L351.05 152.16L346.32 154.41L346.32 161.58L377.89 177.37L346.32 193.16L346.32 264.74L366.32 264.74L366.32 305.62L367.89 306.24L371.68 307.94L375.4 309.78L379.03 311.75L382.58 313.86L386.03 316.1L389.4 318.47L392.66 320.96L395.83 323.57L398.89 326.31L401.85 329.15L404.69 332.11L407.43 335.17L410.04 338.34L412.53 341.6L414.9 344.97L417.14 348.42L419.25 351.97L421.22 355.6L423.06 359.32L424.76 363.11L426.31 366.98L427.71 370.93L428.96 374.94L430.05 379.02L430.99 383.16L431.76 387.36L432.37 391.62L432.8 395.93L433.07 400.28L433.16 404.68L433.07 409.09L432.8 413.44L432.37 417.75L431.76 422L430.99 426.21L430.05 430.35L428.96 434.43L427.71 438.44L426.31 442.38L424.76 446.26L423.06 450.05L421.22 453.77L419.25 457.4L417.14 460.95L414.9 464.4L412.53 467.77L410.04 471.03L407.43 474.2L404.69 477.26L401.85 480.22L398.89 483.06L395.83 485.79L392.66 488.41L389.4 490.9L386.03 493.27L382.58 495.51L379.03 497.62L375.4 499.59L371.68 501.43L367.89 503.12L364.02 504.67L360.07 506.08L356.06 507.32L351.98 508.42L347.84 509.35L343.64 510.13L339.38 510.73L335.07 511.17L330.72 511.44L326.32 511.53L321.91 511.44L317.56 511.17L313.25 510.73L309 510.13L304.79 509.35L300.65 508.42L296.57 507.32L292.56 506.08L288.62 504.67L284.74 503.12L280.95 501.43L277.23 499.59L273.6 497.62L270.05 495.51L266.6 493.27L263.23 490.9L259.97 488.41L256.8 485.79L253.74 483.06L250.78 480.22L247.94 477.26L245.21 474.2L242.59 471.03L240.1 467.77L237.73 464.4L235.49 460.95L233.38 457.4L231.41 453.77L229.57 450.05L227.88 446.26L226.33 442.38L224.92 438.44L223.68 434.43L222.58 430.35L221.65 426.21L220.87 422L220.27 417.75L219.83 413.44L219.56 409.09L219.47 404.68L219.56 400.28L219.83 395.93L220.27 391.62L220.87 387.36L221.65 383.16L222.58 379.02L223.68 374.94L224.92 370.93L226.33 366.98L227.88 363.11L229.57 359.32L231.41 355.6L233.38 351.97L235.49 348.42L237.73 344.97L240.1 341.6L242.59 338.34L245.21 335.17L247.94 332.11L250.78 329.15L253.74 326.31L256.8 323.57L259.97 320.96L263.23 318.47L266.6 316.1L270.05 313.86L273.6 311.75L277.23 309.78L280.95 307.94L284.74 306.24L286.32 305.62L286.32 264.74L306.32 264.74L306.32 116L306.33 115.45L306.37 114.91L306.45 114.38L306.55 113.85L306.67 113.34L306.83 112.84L307 112.35L307.21 111.87L307.43 111.4L307.68 110.95L307.95 110.52L308.25 110.09L308.56 109.69L308.89 109.3L309.24 108.93L309.62 108.58L310 108.24L310.41 107.93L310.83 107.64L311.27 107.37L311.72 107.12L312.19 106.89L312.66 106.69L313.16 106.51L313.66 106.36L314.17 106.23L314.69 106.13L315.23 106.06L315.77 106.01L316.32 106L317.89 106L317.89 104.79L320.44 106L336.32 106ZM323.62 444.99L322.33 445.3L321.09 445.73L319.9 446.26L318.78 446.9L317.72 447.63L316.73 448.46L315.83 449.36L315 450.35L314.27 451.41L313.63 452.53L313.1 453.72L312.67 454.96L312.36 456.25L312.17 457.58L312.11 458.95L312.17 460.32L312.36 461.65L312.67 462.93L313.1 464.17L313.63 465.36L314.27 466.49L315 467.54L315.83 468.53L316.73 469.44L317.72 470.26L318.78 470.99L319.9 471.63L321.09 472.16L322.33 472.59L323.62 472.9L324.95 473.09L326.32 473.16L327.68 473.09L329.01 472.9L330.3 472.59L331.54 472.16L332.73 471.63L333.85 470.99L334.91 470.26L335.9 469.44L336.81 468.53L337.63 467.54L338.36 466.49L339 465.36L339.53 464.17L339.96 462.93L340.27 461.65L340.46 460.32L340.53 458.95L340.46 457.58L340.27 456.25L339.96 454.96L339.53 453.72L339 452.53L338.36 451.41L337.63 450.35L336.81 449.36L335.9 448.46L334.91 447.63L333.85 446.9L332.73 446.26L331.54 445.73L330.3 445.3L329.01 444.99L327.68 444.8L326.32 444.74L324.95 444.8L323.62 444.99Z" id="aGFLaCGLt"></path><path d="M333.82 313.41L337.51 313.78L341.16 314.3L344.76 314.97L348.31 315.77L351.81 316.71L355.25 317.78L358.63 318.98L361.95 320.31L365.2 321.76L368.39 323.33L371.5 325.03L374.54 326.83L377.5 328.75L380.39 330.78L383.19 332.92L385.9 335.16L388.53 337.5L391.06 339.94L393.5 342.47L395.84 345.1L398.08 347.81L400.22 350.61L402.25 353.5L404.17 356.46L405.97 359.5L407.67 362.61L409.24 365.8L410.69 369.05L412.02 372.37L413.22 375.75L414.29 379.19L415.23 382.69L416.03 386.24L416.7 389.84L417.22 393.49L417.59 397.18L417.82 400.91L417.89 404.68L417.82 408.46L417.59 412.19L417.22 415.88L416.7 419.53L416.03 423.13L415.23 426.68L414.29 430.18L413.22 433.62L412.02 437L410.69 440.32L409.24 443.57L407.67 446.76L405.97 449.87L404.17 452.91L402.25 455.87L400.22 458.75L398.08 461.55L395.84 464.27L393.5 466.89L391.06 469.43L388.53 471.87L385.9 474.21L383.19 476.45L380.39 478.58L377.5 480.61L374.54 482.53L371.5 484.34L368.39 486.03L365.2 487.61L361.95 489.06L358.63 490.39L355.25 491.59L351.81 492.66L348.31 493.6L344.76 494.4L341.16 495.06L337.51 495.58L333.82 495.96L330.09 496.19L326.32 496.26L322.54 496.19L318.81 495.96L315.12 495.58L311.47 495.06L307.87 494.4L304.32 493.6L300.82 492.66L297.38 491.59L294 490.39L290.68 489.06L287.43 487.61L284.24 486.03L281.13 484.34L278.09 482.53L275.13 480.61L272.25 478.58L269.45 476.45L266.73 474.21L264.11 471.87L261.57 469.43L259.13 466.89L256.79 464.27L254.55 461.55L252.42 458.75L250.39 455.87L248.47 452.91L246.66 449.87L244.97 446.76L243.39 443.57L241.94 440.32L240.61 437L239.41 433.62L238.34 430.18L237.4 426.68L236.6 423.13L235.94 419.53L235.42 415.88L235.04 412.19L234.81 408.46L234.74 404.68L234.81 400.91L235.04 397.18L235.42 393.49L235.94 389.84L236.6 386.24L237.4 382.69L238.34 379.19L239.41 375.75L240.61 372.37L241.94 369.05L243.39 365.8L244.97 362.61L246.66 359.5L248.47 356.46L250.39 353.5L252.42 350.61L254.55 347.81L256.79 345.1L259.13 342.47L261.57 339.94L264.11 337.5L266.73 335.16L269.45 332.92L272.25 330.78L275.13 328.75L278.09 326.83L281.13 325.03L284.24 323.33L287.43 321.76L290.68 320.31L294 318.98L297.38 317.78L300.82 316.71L304.32 315.77L307.87 314.97L311.47 314.3L315.12 313.78L318.81 313.41L322.54 313.18L326.32 313.11L330.09 313.18L333.82 313.41ZM323.67 444.92L322.4 445.21L321.18 445.61L320 446.1L318.88 446.7L317.82 447.38L316.82 448.15L315.9 449L315.05 449.93L314.28 450.92L313.59 451.99L313 453.11L312.5 454.28L312.11 455.51L311.82 456.77L311.64 458.08L311.58 459.42L311.64 460.76L311.82 462.07L312.11 463.34L312.5 464.56L313 465.74L313.59 466.86L314.28 467.92L315.05 468.91L315.9 469.84L316.82 470.69L317.82 471.46L318.88 472.14L320 472.74L321.18 473.24L322.4 473.63L323.67 473.92L324.98 474.1L326.32 474.16L327.66 474.1L328.96 473.92L330.23 473.63L331.46 473.24L332.63 472.74L333.75 472.14L334.81 471.46L335.81 470.69L336.73 469.84L337.58 468.91L338.36 467.92L339.04 466.86L339.63 465.74L340.13 464.56L340.53 463.34L340.82 462.07L340.99 460.76L341.05 459.42L340.99 458.08L340.82 456.77L340.53 455.51L340.13 454.28L339.63 453.11L339.04 451.99L338.36 450.92L337.58 449.93L336.73 449L335.81 448.15L334.81 447.38L333.75 446.7L332.63 446.1L331.46 445.61L330.23 445.21L328.96 444.92L327.66 444.74L326.32 444.68L324.98 444.74L323.67 444.92Z" id="fcYQbt730"></path><path d="M315.79 106L322.11 106L322.11 319.68L315.79 319.68L315.79 106Z" id="a1wJ2laQB"></path><path d="M342.11 457.82C342.11 466.54 335.03 473.61 326.32 473.61C317.6 473.61 310.53 466.54 310.53 457.82C310.53 449.11 317.6 442.03 326.32 442.03C335.03 442.03 342.11 449.11 342.11 457.82Z" id="a1ApLljUhr"></path><path d="M453.08 548.85C453.08 557.57 395.36 564.65 324.28 564.65C253.19 564.65 195.48 557.57 195.48 548.85C195.48 540.13 253.19 533.05 324.28 533.05C395.36 533.05 453.08 540.13 453.08 548.85Z" id="f5wMafNs3"></path></defs><g><g><g><g><use xlink:href="#g3IBxzJec" opacity="1" fill="#f3bd2a" fill-opacity="1"></use><g><filter id="shadow8945663" x="106.59" y="110.22" width="292.85" height="400.09" filterUnits="userSpaceOnUse" primitiveUnits="userSpaceOnUse"><feFlood></feFlood><feComposite in2="SourceAlpha" operator="out"></feComposite><feGaussianBlur stdDeviation="1"></feGaussianBlur><feOffset dx="1" dy="3" result="afterOffset"></feOffset><feFlood flood-color="#93782e" flood-opacity="0.8"></feFlood><feComposite in2="afterOffset" operator="in"></feComposite><feMorphology operator="dilate" radius="1"></feMorphology><feComposite in2="SourceAlpha" operator="in"></feComposite></filter><path d="M168.78 155.8L170.81 159.31L170.81 159.31L207.42 156.41L186.6 186.66L227.94 258.27L245.26 248.27L265.7 283.67L267.37 283.43L271.51 283L275.64 282.73L279.78 282.62L283.9 282.68L288.02 282.89L292.11 283.26L296.19 283.78L300.24 284.46L304.26 285.3L308.24 286.28L312.18 287.42L316.08 288.71L319.92 290.14L323.72 291.73L327.45 293.45L331.12 295.33L334.72 297.34L338.24 299.5L341.69 301.8L345.06 304.24L348.34 306.82L351.52 309.54L354.61 312.39L357.6 315.37L360.48 318.49L363.25 321.74L365.9 325.13L368.43 328.64L370.84 332.28L373.12 336.04L375.24 339.9L377.19 343.8L378.97 347.75L380.57 351.74L382 355.77L383.26 359.82L384.35 363.9L385.28 368L386.04 372.12L386.63 376.25L387.06 380.38L387.33 384.52L387.43 388.65L387.38 392.78L387.17 396.89L386.8 400.99L386.27 405.06L385.59 409.11L384.76 413.13L383.77 417.11L382.64 421.05L381.35 424.95L379.91 428.8L378.33 432.59L376.6 436.32L374.73 439.99L372.71 443.59L370.55 447.12L368.25 450.57L365.81 453.93L363.24 457.21L360.52 460.39L357.67 463.48L354.68 466.47L351.56 469.35L348.31 472.12L344.93 474.77L341.42 477.31L337.78 479.71L334.01 481.99L330.16 484.12L326.25 486.06L322.3 487.84L318.31 489.44L314.29 490.87L310.24 492.13L306.16 493.22L302.05 494.15L297.94 494.91L293.81 495.5L289.68 495.93L285.54 496.2L281.41 496.31L277.28 496.25L273.17 496.04L269.07 495.67L264.99 495.15L260.94 494.47L256.93 493.63L252.94 492.65L249 491.51L245.11 490.22L241.26 488.79L237.47 487.2L233.74 485.48L230.07 483.6L226.47 481.59L222.94 479.43L219.49 477.13L216.13 474.69L212.85 472.11L209.66 469.39L206.57 466.54L203.59 463.56L200.71 460.44L197.94 457.19L195.28 453.8L192.75 450.29L190.34 446.65L188.06 442.89L185.94 439.03L183.99 435.12L182.22 431.17L180.62 427.19L179.18 423.16L177.92 419.11L176.83 415.03L175.91 410.93L175.15 406.81L174.55 402.68L174.12 398.55L173.86 394.41L173.75 390.28L173.8 386.15L174.02 382.04L174.39 377.94L174.91 373.87L175.59 369.82L176.42 365.8L177.41 361.82L178.55 357.88L179.83 353.98L181.27 350.13L182.85 346.34L184.58 342.61L186.45 338.94L188.47 335.34L190.63 331.81L192.93 328.36L195.37 325L196.42 323.67L175.98 288.27L193.3 278.27L126.46 162.49L126.46 162.49L118.93 149.46L118.67 148.97L118.44 148.48L118.23 147.99L118.06 147.48L117.91 146.98L117.79 146.46L117.7 145.95L117.64 145.43L117.6 144.92L117.59 144.4L117.6 143.89L117.65 143.38L117.72 142.87L117.81 142.37L117.93 141.87L118.08 141.38L118.25 140.89L118.44 140.42L118.66 139.96L118.9 139.5L119.17 139.06L119.46 138.63L119.77 138.22L120.11 137.82L120.47 137.44L120.85 137.07L121.25 136.72L121.68 136.39L122.12 136.08L122.59 135.8L139.91 125.8L139.92 125.79L140.71 125.34L140.84 125.33L140.88 125.3L141.38 125.1L141.88 124.92L142.39 124.78L142.9 124.66L143.42 124.57L143.93 124.5L144.45 124.47L144.96 124.46L145.48 124.47L145.99 124.51L146.5 124.58L147 124.68L147.49 124.8L155.96 124.12L192.57 121.22L171.75 151.47L168.78 155.8ZM305.64 422.4L304.36 422.65L303.08 423.02L301.84 423.52L300.62 424.15L299.47 424.89L298.41 425.72L297.45 426.64L296.59 427.63L295.83 428.68L295.17 429.79L294.62 430.96L294.18 432.16L293.85 433.4L293.63 434.67L293.52 435.95L293.53 437.25L293.66 438.54L293.92 439.83L294.29 441.1L294.79 442.35L295.42 443.56L296.16 444.72L296.99 445.77L297.9 446.73L298.89 447.59L299.95 448.35L301.06 449.01L302.22 449.56L303.43 450L304.67 450.33L305.94 450.55L307.22 450.66L308.51 450.65L309.8 450.52L311.09 450.27L312.36 449.89L313.61 449.39L314.83 448.76L315.98 448.02L317.04 447.19L318 446.28L318.86 445.29L319.62 444.23L320.27 443.12L320.82 441.96L321.27 440.75L321.6 439.51L321.82 438.25L321.92 436.96L321.91 435.67L321.78 434.38L321.53 433.09L321.16 431.82L320.66 430.57L320.03 429.35L319.29 428.2L318.46 427.14L317.54 426.18L316.56 425.32L315.5 424.56L314.39 423.91L313.22 423.36L312.02 422.91L310.78 422.58L309.51 422.36L308.23 422.26L306.94 422.27L305.64 422.4Z" id="a3xUEEiEs" fill="white" fill-opacity="1" filter="url(#shadow8945663)"></path></g></g><g><use xlink:href="#i1auZ1ScD4" opacity="1" fill="#d4a31e" fill-opacity="1"></use></g><g><use xlink:href="#c8p3bpDP6" opacity="1" fill="#d4a31e" fill-opacity="1"></use></g></g><g><g><use xlink:href="#cTRXOYcKs" opacity="1" fill="#f3bd2a" fill-opacity="1"></use><g><filter id="shadow13643983" x="246.8" y="124.23" width="320.38" height="387.96" filterUnits="userSpaceOnUse" primitiveUnits="userSpaceOnUse"><feFlood></feFlood><feComposite in2="SourceAlpha" operator="out"></feComposite><feGaussianBlur stdDeviation="1"></feGaussianBlur><feOffset dx="1" dy="3" result="afterOffset"></feOffset><feFlood flood-color="#93782e" flood-opacity="0.8"></feFlood><feComposite in2="afterOffset" operator="in"></feComposite><feMorphology operator="dilate" radius="1"></feMorphology><feComposite in2="SourceAlpha" operator="in"></feComposite></filter><path d="M527.71 144.04L528.21 143.98L528.72 143.95L529.24 143.94L529.75 143.96L530.26 144L530.77 144.07L531.28 144.17L531.78 144.29L532.28 144.44L532.78 144.62L533.27 144.82L533.74 145.06L534.21 145.32L534.26 145.35L534.38 145.37L535.12 145.92L535.12 145.92L549.89 156.93L551.16 157.87L551.59 158.21L552 158.57L552.38 158.95L552.74 159.34L553.08 159.75L553.39 160.17L553.68 160.61L553.94 161.06L554.18 161.52L554.39 161.99L554.58 162.46L554.74 162.95L554.88 163.45L554.99 163.94L555.08 164.45L555.14 164.96L555.17 165.47L555.18 165.98L555.16 166.49L555.12 167.01L555.05 167.52L554.95 168.03L554.83 168.53L554.68 169.03L554.5 169.52L554.3 170.01L554.06 170.49L553.8 170.96L553.52 171.42L553.2 171.87L538.1 192.12L538.1 192.12L464.3 291.12L480.34 303.07L455.91 335.85L456.79 337.29L458.82 340.92L460.7 344.61L462.44 348.36L464.02 352.17L465.45 356.04L466.73 359.95L467.86 363.9L468.84 367.88L469.66 371.9L470.33 375.95L470.84 380.02L471.2 384.11L471.41 388.21L471.45 392.32L471.34 396.43L471.07 400.54L470.64 404.65L470.05 408.74L469.31 412.82L468.4 416.87L467.32 420.9L466.09 424.9L464.69 428.87L463.13 432.79L461.41 436.67L459.52 440.5L457.46 444.27L455.24 447.99L452.85 451.64L450.29 455.22L447.58 458.7L444.77 462.03L441.84 465.22L438.81 468.27L435.68 471.18L432.46 473.94L429.14 476.56L425.74 479.03L422.26 481.35L418.7 483.53L415.08 485.56L411.38 487.44L407.63 489.17L403.82 490.76L399.96 492.19L396.05 493.47L392.1 494.6L388.11 495.58L384.09 496.4L380.04 497.07L375.97 497.58L371.88 497.94L367.78 498.15L363.67 498.19L359.56 498.08L355.45 497.81L351.35 497.38L347.25 496.79L343.18 496.05L339.12 495.14L335.09 494.06L331.09 492.83L327.13 491.43L323.2 489.87L319.32 488.15L315.49 486.26L311.72 484.2L308 481.98L304.35 479.58L300.77 477.03L297.29 474.32L293.96 471.51L290.77 468.58L287.72 465.55L284.81 462.42L282.05 459.2L279.44 455.88L276.97 452.48L274.64 449L272.46 445.44L270.43 441.82L268.55 438.12L266.82 434.37L265.24 430.56L263.8 426.7L262.52 422.79L261.39 418.84L260.42 414.85L259.59 410.83L258.92 406.78L258.41 402.71L258.05 398.62L257.85 394.52L257.8 390.41L257.91 386.3L258.18 382.19L258.61 378.09L259.2 373.99L259.95 369.92L260.86 365.86L261.93 361.83L263.16 357.83L264.56 353.87L266.12 349.94L267.85 346.06L269.74 342.23L271.79 338.46L274.02 334.74L276.41 331.09L278.97 327.51L281.67 324.03L284.48 320.7L287.41 317.51L290.44 314.46L293.57 311.55L296.8 308.79L300.11 306.18L303.51 303.7L306.99 301.38L310.55 299.2L314.18 297.17L317.87 295.29L321.62 293.56L325.43 291.97L329.3 290.54L333.21 289.26L337.16 288.13L341.14 287.16L345.16 286.33L349.21 285.66L353.28 285.15L357.37 284.79L361.47 284.59L365.58 284.54L369.69 284.65L373.8 284.92L377.91 285.35L382 285.94L386.08 286.69L390.13 287.6L391.77 288.03L416.2 255.26L432.23 267.21L481.65 200.92L464.51 168.44L500.53 175.6L502.95 172.35L500.5 167.71L483.36 135.23L519.38 142.39L527.71 144.04ZM329.51 420.92L328.26 421.22L327.04 421.63L325.86 422.15L324.72 422.78L323.64 423.52L322.62 424.37L321.67 425.32L320.8 426.38L320.04 427.51L319.39 428.69L318.87 429.91L318.47 431.16L318.19 432.43L318.03 433.71L317.99 435L318.06 436.28L318.24 437.55L318.54 438.8L318.95 440.02L319.47 441.21L320.1 442.34L320.84 443.43L321.69 444.45L322.64 445.39L323.7 446.26L324.84 447.03L326.02 447.67L327.24 448.19L328.49 448.59L329.76 448.87L331.04 449.03L332.33 449.08L333.61 449.01L334.88 448.82L336.13 448.52L337.35 448.11L338.53 447.59L339.67 446.96L340.75 446.22L341.77 445.37L342.72 444.42L343.59 443.36L344.35 442.23L345 441.05L345.52 439.83L345.92 438.58L346.2 437.31L346.36 436.03L346.4 434.74L346.33 433.46L346.15 432.19L345.85 430.94L345.44 429.72L344.92 428.54L344.29 427.4L343.55 426.32L342.7 425.3L341.75 424.35L340.69 423.48L339.55 422.71L338.37 422.07L337.15 421.55L335.9 421.15L334.63 420.87L333.35 420.71L332.06 420.66L330.78 420.73L329.51 420.92Z" id="a5hH7SNsHY" fill="white" fill-opacity="1" filter="url(#shadow13643983)"></path></g></g><g><use xlink:href="#adYnmghgR" opacity="1" fill="#d4a31e" fill-opacity="1"></use></g><g><use xlink:href="#cA035PNPp" opacity="1" fill="#d4a31e" fill-opacity="1"></use></g></g><g><g><use xlink:href="#aGFLaCGLt" opacity="1" fill="#f3bd2a" fill-opacity="1"></use><g><filter id="shadow15237393" x="208.47" y="93.79" width="236.68" height="431.74" filterUnits="userSpaceOnUse" primitiveUnits="userSpaceOnUse"><feFlood></feFlood><feComposite in2="SourceAlpha" operator="out"></feComposite><feGaussianBlur stdDeviation="1"></feGaussianBlur><feOffset dx="1" dy="3" result="afterOffset"></feOffset><feFlood flood-color="#93782e" flood-opacity="0.8"></feFlood><feComposite in2="afterOffset" operator="in"></feComposite><feMorphology operator="dilate" radius="1"></feMorphology><feComposite in2="SourceAlpha" operator="in"></feComposite></filter><path d="M336.32 106L336.86 106.01L337.41 106.06L337.94 106.13L338.46 106.23L338.97 106.36L339.48 106.51L339.97 106.69L340.45 106.89L340.91 107.12L341.36 107.37L341.8 107.64L342.22 107.93L342.63 108.24L343.02 108.58L343.39 108.93L343.74 109.3L344.07 109.69L344.39 110.09L344.68 110.52L344.95 110.95L345.2 111.4L345.43 111.87L345.63 112.35L345.81 112.84L345.96 113.34L346.09 113.85L346.18 114.38L346.26 114.91L346.3 115.45L346.32 116L346.32 118.32L351.05 120.58L384.21 136.37L351.05 152.16L346.32 154.41L346.32 161.58L377.89 177.37L346.32 193.16L346.32 264.74L366.32 264.74L366.32 305.62L367.89 306.24L371.68 307.94L375.4 309.78L379.03 311.75L382.58 313.86L386.03 316.1L389.4 318.47L392.66 320.96L395.83 323.57L398.89 326.31L401.85 329.15L404.69 332.11L407.43 335.17L410.04 338.34L412.53 341.6L414.9 344.97L417.14 348.42L419.25 351.97L421.22 355.6L423.06 359.32L424.76 363.11L426.31 366.98L427.71 370.93L428.96 374.94L430.05 379.02L430.99 383.16L431.76 387.36L432.37 391.62L432.8 395.93L433.07 400.28L433.16 404.68L433.07 409.09L432.8 413.44L432.37 417.75L431.76 422L430.99 426.21L430.05 430.35L428.96 434.43L427.71 438.44L426.31 442.38L424.76 446.26L423.06 450.05L421.22 453.77L419.25 457.4L417.14 460.95L414.9 464.4L412.53 467.77L410.04 471.03L407.43 474.2L404.69 477.26L401.85 480.22L398.89 483.06L395.83 485.79L392.66 488.41L389.4 490.9L386.03 493.27L382.58 495.51L379.03 497.62L375.4 499.59L371.68 501.43L367.89 503.12L364.02 504.67L360.07 506.08L356.06 507.32L351.98 508.42L347.84 509.35L343.64 510.13L339.38 510.73L335.07 511.17L330.72 511.44L326.32 511.53L321.91 511.44L317.56 511.17L313.25 510.73L309 510.13L304.79 509.35L300.65 508.42L296.57 507.32L292.56 506.08L288.62 504.67L284.74 503.12L280.95 501.43L277.23 499.59L273.6 497.62L270.05 495.51L266.6 493.27L263.23 490.9L259.97 488.41L256.8 485.79L253.74 483.06L250.78 480.22L247.94 477.26L245.21 474.2L242.59 471.03L240.1 467.77L237.73 464.4L235.49 460.95L233.38 457.4L231.41 453.77L229.57 450.05L227.88 446.26L226.33 442.38L224.92 438.44L223.68 434.43L222.58 430.35L221.65 426.21L220.87 422L220.27 417.75L219.83 413.44L219.56 409.09L219.47 404.68L219.56 400.28L219.83 395.93L220.27 391.62L220.87 387.36L221.65 383.16L222.58 379.02L223.68 374.94L224.92 370.93L226.33 366.98L227.88 363.11L229.57 359.32L231.41 355.6L233.38 351.97L235.49 348.42L237.73 344.97L240.1 341.6L242.59 338.34L245.21 335.17L247.94 332.11L250.78 329.15L253.74 326.31L256.8 323.57L259.97 320.96L263.23 318.47L266.6 316.1L270.05 313.86L273.6 311.75L277.23 309.78L280.95 307.94L284.74 306.24L286.32 305.62L286.32 264.74L306.32 264.74L306.32 116L306.33 115.45L306.37 114.91L306.45 114.38L306.55 113.85L306.67 113.34L306.83 112.84L307 112.35L307.21 111.87L307.43 111.4L307.68 110.95L307.95 110.52L308.25 110.09L308.56 109.69L308.89 109.3L309.24 108.93L309.62 108.58L310 108.24L310.41 107.93L310.83 107.64L311.27 107.37L311.72 107.12L312.19 106.89L312.66 106.69L313.16 106.51L313.66 106.36L314.17 106.23L314.69 106.13L315.23 106.06L315.77 106.01L316.32 106L317.89 106L317.89 104.79L320.44 106L336.32 106ZM323.62 444.99L322.33 445.3L321.09 445.73L319.9 446.26L318.78 446.9L317.72 447.63L316.73 448.46L315.83 449.36L315 450.35L314.27 451.41L313.63 452.53L313.1 453.72L312.67 454.96L312.36 456.25L312.17 457.58L312.11 458.95L312.17 460.32L312.36 461.65L312.67 462.93L313.1 464.17L313.63 465.36L314.27 466.49L315 467.54L315.83 468.53L316.73 469.44L317.72 470.26L318.78 470.99L319.9 471.63L321.09 472.16L322.33 472.59L323.62 472.9L324.95 473.09L326.32 473.16L327.68 473.09L329.01 472.9L330.3 472.59L331.54 472.16L332.73 471.63L333.85 470.99L334.91 470.26L335.9 469.44L336.81 468.53L337.63 467.54L338.36 466.49L339 465.36L339.53 464.17L339.96 462.93L340.27 461.65L340.46 460.32L340.53 458.95L340.46 457.58L340.27 456.25L339.96 454.96L339.53 453.72L339 452.53L338.36 451.41L337.63 450.35L336.81 449.36L335.9 448.46L334.91 447.63L333.85 446.9L332.73 446.26L331.54 445.73L330.3 445.3L329.01 444.99L327.68 444.8L326.32 444.74L324.95 444.8L323.62 444.99Z" id="aohCoKC9Y" fill="white" fill-opacity="1" filter="url(#shadow15237393)"></path></g></g><g><use xlink:href="#fcYQbt730" opacity="1" fill="#d4a31e" fill-opacity="1"></use></g><g><use xlink:href="#a1wJ2laQB" opacity="1" fill="#d4a31e" fill-opacity="1"></use></g></g><g><use xlink:href="#a1ApLljUhr" opacity="1" fill="#ffffff" fill-opacity="1"></use></g><g><g><filter id="shadow5784677" x="130.48" y="468.05" width="387.59" height="170.6" filterUnits="userSpaceOnUse" primitiveUnits="userSpaceOnUse"><feFlood></feFlood><feComposite in2="SourceAlpha" operator="in"></feComposite><feGaussianBlur stdDeviation="5"></feGaussianBlur><feOffset dx="0" dy="9" result="afterOffset"></feOffset><feFlood flood-color="#cdc253" flood-opacity="0.5"></feFlood><feComposite in2="afterOffset" operator="in"></feComposite><feMorphology operator="dilate" radius="1"></feMorphology><feComposite in2="SourceAlpha" operator="out"></feComposite></filter><path d="M453.08 548.85C453.08 557.57 395.36 564.65 324.28 564.65C253.19 564.65 195.48 557.57 195.48 548.85C195.48 540.13 253.19 533.05 324.28 533.05C395.36 533.05 453.08 540.13 453.08 548.85Z" id="c2r7jweke" fill="white" fill-opacity="1" filter="url(#shadow5784677)"></path></g><use xlink:href="#f5wMafNs3" opacity="0.3" fill="#b19134" fill-opacity="1"></use></g></g></g></svg>